<svg xmlns="http://www.w3.org/2000/svg" version="1.1" xmlns:xlink="http://www.w3.org/1999/xlink" width="2000" height="481" viewBox="0 0 2000 481"><svg xml:space="preserve" width="2000" height="481" data-version="2" data-id="lg_iOVVOZ67UAz65c1gp2" viewBox="0 0 571 481" x="0" y="0"><rect width="100%" height="100%" fill="transparent"></rect><rect width="304.954" height="214.336" x="-152.477" y="-107.168" fill="#fff" rx="0" ry="0" transform="translate(285.5 241.662)scale(1.2244)"></rect><rect width="457.374" height="100" x="-228.687" y="-50" fill="#d6ffff" rx="0" ry="0" transform="matrix(1.2244 0 0 1.3958 285.5 406.6)"></rect><rect width="337.635" height="100" x="-168.817" y="-50" fill="#ffdc00" rx="0" ry="0" transform="matrix(0 -1.3958 1.2244 0 504.276 240.243)"></rect><rect width="333.829" height="100" x="-166.914" y="-50" fill="#00d877" rx="0" ry="0" transform="matrix(0 -1.3958 1.2244 0 66.72 242.911)"></rect><rect width="457.374" height="100" x="-228.687" y="-50" fill="#ff641c" rx="0" ry="0" transform="matrix(1.2244 0 0 1.3958 285.5 74.402)"></rect><path d="M141.1 65.39q1.74-2.6 2.89-4.85 1.14-2.24 2.21-5.2 3.63 2.09 8.42 3.26 4.79 1.18 8.92 1.18 4.24 0 5.97-.74 1.74-.74 1.74-1.61 0-3.11-9.49-3.11-10.4 0-15.1-2.17-4.69-2.17-4.69-7.01 0-6.89 5.71-10.15 5.72-3.26 14.84-3.26 5.31 0 10.89 1.35 5.59 1.35 10.08 3.7-1.48 3.36-3.12 8.21-.3 1.02-.51 1.53-2.6-2.09-7.85-3.5-5.25-1.4-9.28-1.4-4.85 0-6.53.64-1.68.64-1.68 1.86 0 1.22 2.32 1.96t6.7.74q10.82 0 15.71 2.48 4.9 2.47 4.9 7.57 0 7.14-5.2 10.28-5.21 3.13-15.76 3.13-5.66 0-11.53-1.25-5.86-1.25-10.56-3.64m76.76-32.64h18.05l3.98 37.02h-13.21l-.81-26.42-5.1 26.42H207.4l-5.2-26.21-.76 26.21h-13.21l3.98-37.02h17.34l4.43 24.12zm48.81 37.53q-11.68 0-17.19-5.07-5.51-5.08-5.51-14.26 0-9.07 5.48-14.17 5.49-5.1 17.22-5.1 11.78 0 17.26 5.1 5.48 5.1 5.48 14.17 0 9.23-5.45 14.28-5.46 5.05-17.29 5.05m0-10.4q5.66 0 8.16-2.17t2.5-6.76q0-4.48-2.5-6.68-2.5-2.19-8.16-2.19-5.61 0-8.11 2.19-2.5 2.2-2.5 6.68 0 4.54 2.5 6.74 2.5 2.19 8.11 2.19m48.5 10.4q-11.68 0-17.19-5.07-5.51-5.08-5.51-14.26 0-9.07 5.48-14.17 5.49-5.1 17.22-5.1 11.78 0 17.26 5.1 5.48 5.1 5.48 14.17 0 9.23-5.45 14.28-5.46 5.05-17.29 5.05m0-10.4q5.66 0 8.16-2.17t2.5-6.76q0-4.48-2.5-6.68-2.5-2.19-8.16-2.19-5.61 0-8.11 2.19-2.5 2.2-2.5 6.68 0 4.54 2.5 6.74 2.5 2.19 8.11 2.19m70.63-27.13v10.71q-8-.26-15.55-.31v26.62H357.5V43.15q-7.6.05-15.51.31V32.75zm32.29 0h11.98q-.36 8.62-.36 18.51 0 9.89.36 18.51h-11.98V55.9h-18.77v13.87h-11.99q.41-9.89.41-18.51 0-8.62-.41-18.51h11.99v13.87h18.77zM171.58 73.1q9.58 0 15.14 2.32 5.56 2.32 7.78 6.43 2.22 4.11 2.22 10.07 0 5.66-2.55 9.9-2.55 4.23-7.65 6.55-5.1 2.32-12.55 2.32h-9.23q-4.69 0-9.48-.05.4-10.05.4-18.72 0-8.77-.4-18.31 6.07-.51 16.32-.51m-3.57 27.44h7.39q4.74 0 6.33-2.29 1.58-2.3 1.58-6.33 0-3.87-1.66-6.27-1.66-2.4-6.25-2.4-4.95 0-7.39.31zm44.83-4.49v5.31q19.38-.1 28.1-.56-.36 2.09-.44 4.31-.07 2.21-.07 5.58H200.8q.41-9.89.41-18.51 0-8.62-.41-18.52h39.63v9.24h-27.59v4.89q2.44.05 7.24.05 8.11 0 16.78-.3v8.77q-8.67-.31-16.78-.31-4.8 0-7.24.05m32.18 10.25q1.73-2.6 2.88-4.84 1.15-2.24 2.22-5.2 3.62 2.09 8.41 3.26 4.8 1.17 8.93 1.17 4.23 0 5.96-.74 1.74-.73 1.74-1.6 0-3.11-9.49-3.11-10.4 0-15.09-2.17-4.7-2.17-4.7-7.01 0-6.89 5.72-10.15 5.71-3.27 14.84-3.27 5.3 0 10.89 1.36 5.58 1.35 10.07 3.69-1.48 3.37-3.11 8.21-.31 1.02-.51 1.53-2.6-2.09-7.86-3.49-5.25-1.4-9.28-1.4-4.84 0-6.53.64-1.68.63-1.68 1.86 0 1.22 2.32 1.96t6.71.74q10.81 0 15.7 2.47 4.9 2.48 4.9 7.58 0 7.14-5.2 10.27-5.2 3.14-15.76 3.14-5.66 0-11.53-1.25-5.86-1.25-10.55-3.65m76.75-32.64v10.15q-6.07-.3-8.97-.35v17.44q2.95-.05 8.97-.36v10.15h-29.63v-10.15q5.87.31 8.93.36V83.46q-3.06.05-8.93.35V73.66zm25.09 24.18v-8.26h21.78v21.11h-8.98l-1.07-9.03q-1.53 4.85-5.45 7.19-3.93 2.35-9.59 2.35-5.15 0-9.16-2.29-4-2.3-6.27-6.58-2.27-4.29-2.27-10 0-9.13 5.46-14.43 5.46-5.31 16.98-5.31 6.58 0 11.6 2.15 5.03 2.14 8.55 6.63-2.3 1.17-8.98 4.69l-1.27.71q-1.99-1.99-4.65-2.98-2.65-1-5.61-1-4.89 0-7.29 2.58-2.4 2.57-2.4 6.35 0 4.08 2.58 6.58t7.88 2.5q2.29 0 4.46-.67 2.17-.66 3.65-2.29zm56.15-24.12h12.5q-.36 8.61-.36 18.46 0 9.89.36 18.51h-18.26l-12.34-27.85.92 27.85h-13.11q.41-9.89.41-18.51 0-8.57-.41-18.46h18.77l12.39 28.61zm13.133 95.933c-11.321 0-22.304.815-32.764 2.366a108.14 50.15 0 0 0-65.543.008 107.296 49.759 0 0 0-65.527-.008 108.14 50.15 0 0 0-65.56 0 108.14 50.15 0 0 0-32.78-2.366c-70.73 0-128.299 32.151-128.299 71.66s57.568 71.66 128.316 71.66c11.32 0 22.304-.822 32.78-2.366a108.14 50.15 0 0 0 65.56 0 108.14 50.15 0 0 0 65.527-.008 107.465 49.837 0 0 0 65.543.008 108.14 50.15 0 0 0 32.764 2.366c70.764 0 128.315-32.15 128.315-71.66s-57.568-71.66-128.332-71.66m-65.527 3.863q10.003 0 19.533.901a118.279 54.852 0 0 0-19.533 5.313 118.279 54.852 0 0 0-19.55-5.313 98.003 45.449 0 0 1 19.55-.9m-120.002 67.796c0-14.434 8.026-27.825 21.695-38.835 13.67 11.01 21.68 24.401 21.68 38.835s-8.027 27.834-21.68 38.843c-13.686-11.01-21.695-24.409-21.695-38.843m16.778 42.526a133.486 61.904 0 0 1-27.863 14.238c-32.78-12.106-54.476-33.036-54.476-56.772 0-23.735 21.696-44.65 54.476-56.764a133.486 61.904 0 0 1 27.863 14.238c-15.781 11.903-25.109 26.62-25.109 42.519s9.345 30.63 25.11 42.526Zm34.927-42.526c0-15.899-9.345-30.623-25.093-42.518a131.797 61.12 0 0 1 27.847-14.246 133.486 61.904 0 0 1 27.863 14.246c-15.765 11.903-25.092 26.619-25.092 42.518s9.344 30.631 25.092 42.526a133.486 61.904 0 0 1-27.863 14.238 133.486 61.904 0 0 1-27.863-14.246c15.781-11.903 25.109-26.619 25.109-42.518m13.838 0c0-14.434 8.026-27.825 21.696-38.835 13.67 11.01 21.679 24.401 21.679 38.835s-8.026 27.834-21.68 38.843c-13.686-11.01-21.695-24.409-21.695-38.843m51.705 0c0-15.899-9.344-30.623-25.092-42.518a131.797 61.12 0 0 1 27.846-14.246c32.78 12.115 54.46 33.045 54.46 56.772s-21.68 44.657-54.46 56.772a133.486 61.904 0 0 1-27.863-14.246c15.782-11.903 25.109-26.619 25.109-42.518Zm-30.026-65.227a108.14 50.15 0 0 1 25.903 6.097 141.935 65.822 0 0 0-25.903 13.133 141.935 65.822 0 0 0-25.903-13.133 108.14 50.15 0 0 1 25.903-6.097m-32.763-2.57q9.986 0 19.55.901a118.279 54.852 0 0 0-19.533 5.313 118.279 54.852 0 0 0-19.55-5.313 98.003 45.449 0 0 1 19.533-.9m-6.86 8.674a141.935 65.822 0 0 0-25.904 13.125 141.935 65.822 0 0 0-25.92-13.133 108.14 50.15 0 0 1 25.92-6.097 108.14 50.15 0 0 1 25.904 6.105m-58.684-8.675q9.986 0 19.55.901a118.279 54.852 0 0 0-19.55 5.313 118.279 54.852 0 0 0-19.55-5.313 98.003 45.449 0 0 1 19.55-.9m-6.86 8.674c-33.743 12.913-55.929 34.603-55.929 59.122 0 24.52 22.186 46.21 55.93 59.123a108.14 50.15 0 0 1-25.904 6.104c-50.302-8.071-87.222-34.259-87.222-65.227 0-30.968 36.92-57.156 87.222-65.227a108.14 50.15 0 0 1 25.903 6.105m-58.683 126.92c-66.152 0-120.003-30.412-120.003-67.798 0-37.385 53.851-67.797 120.003-67.797q9.986 0 19.55.901c-48.106 10.344-82.34 36.43-82.34 66.896s34.234 56.553 82.34 66.896a98.003 45.449 0 0 1-19.55.901m65.543 0q-9.986 0-19.55-.9a118.279 54.852 0 0 0 19.55-5.314 118.279 54.852 0 0 0 19.55 5.313 98.003 45.449 0 0 1-19.55.901m6.86-8.666a141.935 65.822 0 0 0 25.92-13.133 140.245 65.039 0 0 0 25.904 13.125 108.14 50.15 0 0 1-25.904 6.104 108.14 50.15 0 0 1-25.92-6.096m58.684 8.666q-10.003 0-19.533-.9a118.279 54.852 0 0 0 19.55-5.314 118.279 54.852 0 0 0 19.533 5.313 98.003 45.449 0 0 1-19.55.901m6.86-8.666a141.935 65.822 0 0 0 25.903-13.133 141.935 65.822 0 0 0 25.903 13.133 108.14 50.15 0 0 1-25.903 6.096 108.14 50.15 0 0 1-25.903-6.096m58.683 8.666q-9.986 0-19.55-.9a118.279 54.852 0 0 0 19.55-5.314 118.279 54.852 0 0 0 19.533 5.313 98.003 45.449 0 0 1-19.533.901m32.747-2.57a108.14 50.15 0 0 1-25.904-6.096c33.76-12.922 55.93-34.612 55.93-59.13 0-24.52-22.17-46.21-55.93-59.131a108.14 50.15 0 0 1 25.904-6.097c50.302 8.071 87.239 34.267 87.239 65.227s-36.954 57.156-87.24 65.227m32.78 2.57q-9.985 0-19.55-.9c48.124-10.337 82.357-36.43 82.357-66.897s-34.25-56.56-82.373-66.896a98.003 45.449 0 0 1 19.55-.9c66.169 0 120.002 30.418 120.002 67.796 0 37.378-53.833 67.797-120.002 67.797ZM166.38 372.5h10.78q-.3 7.44-.3 15.93 0 8.53.3 15.97h-15.75l-10.65-24.02.8 24.02h-11.31q.35-8.54.35-15.97 0-7.39-.35-15.93h16.19l10.69 24.68zm24.69 19.27v4.58q16.72-.09 24.24-.49-.31 1.81-.37 3.72-.07 1.92-.07 4.82h-34.19q.36-8.54.36-15.97 0-7.44-.36-15.97h34.19v7.96h-23.8v4.22q2.11.05 6.25.05 6.99 0 14.47-.27v7.57q-7.48-.26-14.47-.26-4.14 0-6.25.04m56.01-19.31 3.43 19.93 2.29-19.93h10.74l-5.9 31.94h-13.51l-2.99-17.82-3.48 17.82h-12.93l-5.9-31.94h10.74l2.24 19.66 3.52-19.66zm53.77 0h11.97l-.84 1.27q-4.71 7.31-8.07 12.92-3.37 5.61-5.61 10.31v7.44h-11.49v-8.18q-1.63-3.3-3.83-6.8t-6.24-9.62q-3.17-4.66-4.84-7.34h12.32q1.32 2.68 4.31 7.96 2.99 5.37 4.09 7.57 1.54-3.21 4.14-7.88 3.03-5.45 4.09-7.65m33.88 32.38q-10.08 0-14.83-4.38t-4.75-12.3q0-7.83 4.73-12.23t14.85-4.4q10.16 0 14.89 4.4t4.73 12.23q0 7.97-4.71 12.32-4.7 4.36-14.91 4.36m0-8.98q4.88 0 7.04-1.87 2.15-1.87 2.15-5.83 0-3.87-2.15-5.76-2.16-1.89-7.04-1.89-4.84 0-7 1.89-2.15 1.89-2.15 5.76 0 3.92 2.15 5.81 2.16 1.89 7 1.89m55.83-12.76q0 3.83-1.87 6.47-1.87 2.64-6.4 3.83.53.7.75 1.1l7.13 9.9H378.2q-1.94-3.61-6.12-10.21h-6.46v10.21h-10.39q.35-8.54.35-15.97 0-7.44-.35-15.97h10.39v.04h9.02q8.88 0 12.4 2.86 3.52 2.86 3.52 7.74m-19-2.15h-5.94v5.01h5.94q3.74 0 5.65-.24 1.91-.24 2.66-.77.75-.53.75-1.54 0-.97-.7-1.49-.71-.53-2.64-.75-1.94-.22-5.72-.22m59.31 23.45h-13.82q-2.07-3.74-6.86-11.44l-5.15 5.1v6.34h-10.96q.36-8.54.36-15.97 0-7.44-.36-15.97h10.96v12.89q8.1-8.01 11.53-12.89h14.25l-13.86 13.72q3.08 4.32 6.93 9.38 3.85 5.06 6.98 8.84m-200.92 35.74q-9.94 0-14.65-4.22-4.71-4.23-4.71-12.06 0-7.87 4.71-12.45 4.71-4.58 14.65-4.58 13.91 0 18.61 9.55-3.96 1.37-9.28 4.09-1.28-2.46-4.03-3.65t-5.61-1.19q-4.22 0-6.29 2.23-2.07 2.22-2.07 5.47 0 3.52 2.23 5.75 2.22 2.22 6.79 2.22 3.66 0 5.81-1.21 2.16-1.21 3.17-3.85 3.61 1.93 9.24 4.35-2.2 5.33-7.35 7.44-5.15 2.11-11.22 2.11m47.7-32.38v8.75q-5.24-.26-7.75-.3v15.04q2.56-.04 7.75-.3v8.75h-25.57v-8.75q5.06.26 7.7.3v-15.04q-2.64.04-7.7.3v-8.75zm41.31 0V417q-6.9-.22-13.42-.27v22.97h-11v-22.97q-6.55.05-13.37.27v-9.24zm30.72 0h11.96l-.83 1.27q-4.71 7.31-8.08 12.92-3.36 5.61-5.61 10.32v7.43h-11.48v-8.18q-1.63-3.3-3.83-6.8t-6.25-9.61q-3.16-4.67-4.84-7.35h12.32q1.32 2.68 4.32 7.96 2.99 5.37 4.09 7.57 1.54-3.21 4.13-7.88 3.04-5.45 4.1-7.65m-306.28.72v1.98q7.22-.04 10.47-.21-.13.78-.16 1.6-.03.83-.03 2.08H38.92q.15-3.68.15-6.89 0-3.21-.15-6.9h14.76v3.44H43.4v1.82q.92.02 2.7.02 3.02 0 6.25-.11v3.27q-3.23-.12-6.25-.12-1.78 0-2.7.02m11.99 3.82q.65-.97 1.08-1.81.42-.83.82-1.93 1.35.78 3.14 1.21 1.78.44 3.32.44 1.58 0 2.23-.28.64-.27.64-.59 0-1.16-3.53-1.16-3.88 0-5.63-.81-1.74-.81-1.74-2.61 0-2.57 2.12-3.78 2.13-1.22 5.53-1.22 1.98 0 4.06.5 2.08.51 3.75 1.38-.55 1.25-1.16 3.06-.11.38-.19.57-.97-.78-2.92-1.3-1.96-.52-3.46-.52-1.81 0-2.43.23-.63.24-.63.7 0 .45.86.73.87.27 2.5.27 4.03 0 5.85.92 1.83.93 1.83 2.83 0 2.66-1.94 3.82-1.94 1.17-5.87 1.17-2.11 0-4.29-.46-2.19-.47-3.94-1.36m33.88-12.16v3.99q-2.98-.1-5.8-.11v9.91h-4.75v-9.91q-2.83.01-5.77.11v-3.99zm2.58 13.98q-.83 0-1.42-.6-.59-.59-.59-1.43t.59-1.42q.59-.59 1.42-.59.82 0 1.42.59.6.6.6 1.42 0 .84-.6 1.43-.6.6-1.42.6m385.98-3.51q6.18-.34 9.58-.76-.32.99-.49 2.09-.18 1.1-.18 1.99h-13.58l-.02-.4q0-1.86 1.09-3.23 1.1-1.36 3.05-2.52.57-.34 1.79-.88 1.58-.68 2.43-1.2.86-.53.86-1.04 0-.64-.54-1.02-.53-.38-1.65-.38-1.23 0-1.87.62-.64.63-.64 1.6 0 .3.06.63-2.39-.31-4.66-.42 0-1.62.85-2.92.85-1.3 2.55-2.06 1.7-.76 4.17-.76 2.26 0 3.77.62 1.51.61 2.22 1.55.71.95.71 1.93 0 1.14-.5 1.96-.5.82-1.44 1.45-.94.64-2.52 1.38-.23.12-.74.26-.52.14-.65.18-1.35.4-2.15.66-.79.27-1.5.67m19.06 3.51q-4.08 0-6.02-1.88-1.94-1.88-1.94-5.22 0-3.33 1.95-5.2 1.94-1.87 6.01-1.87t6 1.87q1.94 1.87 1.94 5.2 0 3.34-1.94 5.22-1.93 1.88-6 1.88m.02-3.32q1.75 0 2.55-1.08.79-1.07.79-2.7 0-1.62-.79-2.69-.8-1.07-2.55-1.07-1.81 0-2.61 1.07-.81 1.07-.81 2.69 0 1.61.81 2.7.8 1.08 2.61 1.08m14.21-.19q6.18-.34 9.58-.76-.33.99-.5 2.09-.17 1.1-.17 1.99h-13.58l-.02-.4q0-1.86 1.09-3.23 1.09-1.36 3.05-2.52.57-.34 1.79-.88 1.57-.68 2.43-1.2.85-.53.85-1.04 0-.64-.53-1.02t-1.65-.38q-1.24 0-1.87.62-.64.63-.64 1.6 0 .3.06.63-2.4-.31-4.66-.42 0-1.62.85-2.92.84-1.3 2.54-2.06 1.7-.76 4.17-.76 2.27 0 3.78.62 1.51.61 2.22 1.55.71.95.71 1.93 0 1.14-.5 1.96-.51.82-1.45 1.45-.94.64-2.51 1.38-.23.12-.74.26-.52.14-.65.18-1.35.4-2.15.66-.8.27-1.5.67m24.55-2.66h2.58v3.57h-2.58v2.41h-4.54q.07-.79.11-2.41h-9.02v-3.84q4.42-3.4 7.9-7.54h5.55zm-4.39 0 .06-4.05q-1.31 1.35-2.26 2.25-.95.91-2.15 1.8z"></path></svg></svg>